<svg width="192" height="192" viewBox="0 0 192 192" fill="none" xmlns="http://www.w3.org/2000/svg"><rect width="192" height="192" rx="24" fill="url(#gradient0_linear_1_1)"/><path d="M96 48C73.9086 48 56 65.9086 56 88V104C56 126.091 73.9086 144 96 144C118.091 144 136 126.091 136 104V88C136 65.9086 118.091 48 96 48Z" fill="white"/><path d="M80 72C80 68.6863 82.6863 66 86 66H96C99.3137 66 102 68.6863 102 72V120C102 123.314 99.3137 126 96 126H86C82.6863 126 80 123.314 80 120V72Z" fill="#8b5cf6"/><defs><linearGradient id="gradient0_linear_1_1" x1="0" y1="0" x2="192" y2="192" gradientUnits="userSpaceOnUse"><stop stop-color="#8b5cf6"/><stop offset="1" stop-color="#3b82f6"/></linearGradient></defs></svg>
